<?xml version="1.0" encoding="utf-8"?>
<!-- Generator: Adobe Illustrator 24.1.0, SVG Export Plug-In . SVG Version: 6.00 Build 0)  -->
<svg version="1.1" id="图层_1" xmlns="http://www.w3.org/2000/svg" xmlns:xlink="http://www.w3.org/1999/xlink" x="0px" y="0px"
	 viewBox="0 0 1417.3 1417.3" style="enable-background:new 0 0 1417.3 1417.3;" xml:space="preserve">
<style type="text/css">
	.st0{fill:#04BFB3;}
</style>
<path class="st0" d="M22.2,174.1c0-44.2,15.5-80.6,46.4-109.3s71.1-43.1,120.6-43.1c48.6,0,87.9,14.1,118,42.4
	c30.9,29.2,46.4,67.2,46.4,114c0,42.4-15,77.8-45,106c-30.9,29.2-71.6,43.7-121.9,43.7h-1.3c-48.6,0-87.9-14.6-118-43.7
	S22.2,218.3,22.2,174.1z M39.4,1333.7V448.5h294.2v885.3H39.4z M496.6,1333.7h294.2V839.4c0-30.9,3.5-54.8,10.6-71.6
	c12.4-30,31.1-55.5,56.3-76.2c25.2-20.8,56.8-31.1,94.7-31.1c99,0,148.4,66.7,148.4,200.1v473.1h294.2V826.2
	c0-130.8-30.9-229.9-92.8-297.5c-61.8-67.6-143.6-101.4-245.2-101.4c-114,0-202.8,49-266.4,147.1v2.6h-1.3l1.3-2.6v-126H496.6
	c1.8,28.3,2.6,116.2,2.6,263.7S498.4,1066.9,496.6,1333.7z"/>
</svg>
