<?xml version="1.0" encoding="utf-8"?>
<!-- Generator: Adobe Illustrator 24.1.0, SVG Export Plug-In . SVG Version: 6.00 Build 0)  -->
<svg version="1.1" id="图层_1" xmlns="http://www.w3.org/2000/svg" xmlns:xlink="http://www.w3.org/1999/xlink" x="0px" y="0px"
	 viewBox="0 0 1417.3 1417.3" style="enable-background:new 0 0 1417.3 1417.3;" xml:space="preserve">
<style type="text/css">
	.st0{fill:#04BFB3;stroke:#5DA8DC;stroke-width:1.1265;stroke-miterlimit:9.0116;}
	.st1{fill:#FFFFFF;stroke:#FFFFFF;stroke-width:1.1265;stroke-miterlimit:9.0116;}
</style>
<path class="st0" d="M947,102.7v-0.2h66.5l24.3,4.9c16.2,3.2,30.9,7.3,44.1,12.4c13.2,5.1,26,11.1,38.3,17.9
	c12.4,6.8,23.5,13.8,33.6,20.8c10,7,18.9,14.4,26.8,22.2c7.8,7.9,20.1,10,36.7,6.1s34.5-9.1,53.7-16s38.1-14.5,56.9-23
	c18.7-8.5,30.2-14,34.3-16.2c4-2.4,6.1-3.7,6.4-3.9l0.2-0.4l1.3-0.6l1.3-0.6l1.3-0.6l1.3-0.6l0.3-0.4l0.4-0.3l0.4-0.3l0.2-0.4
	l1.3-0.4l1.3-0.3l-0.5,2l-0.4,1.9l-0.6,1.9l-0.6,1.9l-0.6,1.3l-0.6,1.3l-0.6,1.9c-0.5,1.3-0.9,3-1.3,5.1
	c-0.5,2.2-4.5,10.7-12.1,25.6s-17.2,30-28.8,45.4c-11.5,15.3-21.8,26.9-30.9,34.8c-9.2,7.9-15.3,13.4-18.3,16.6
	c-3,3.2-6.6,6.2-10.8,9l-6.4,4.2l-1.3,0.6l-1.3,0.6l-0.2,0.4l-0.4,0.3l-0.4,0.3l-0.3,0.4l-1.3,0.6l-1.3,0.6l-0.2,0.4l-0.4,0.3
	l-0.4,0.3l-0.3,0.4l-0.2,0.4l-0.4,0.3l-0.4,0.3l-0.3,0.4h6.4l35.8-7.7c23.9-5.1,46.6-11.3,68.4-18.5l34.5-11.5l3.9-1.3l1.9-0.6
	l1.3-0.6l1.3-0.6l1.3-0.6l1.3-0.6l2.6-0.4l2.6-0.3v2.6l-0.6,0.3l-0.6,0.4l-0.2,0.4l-0.4,0.3l-0.4,0.3l-0.3,0.4l-0.2,0.4l-0.4,0.3
	l-0.4,0.3l-0.3,0.4l-0.2,0.4l-0.4,0.3l-0.6,1.3l-0.6,1.3l-0.4,0.3c-0.2,0.3-5.6,7.5-16.2,21.7c-10.7,14.3-16.4,21.6-17.2,21.7
	c-0.9,0.3-2,1.5-3.6,3.9c-1.5,2.4-10.5,11.9-27.1,28.5c-16.6,16.6-32.9,31.4-48.8,44.4c-16,13-24.1,29-24.3,48
	c-0.3,18.9-1.2,40.3-2.9,64.2c-1.7,23.9-4.9,49.6-9.6,77.3s-11.9,59-21.7,93.9c-9.8,34.9-21.7,69-35.8,102.2
	c-14.1,33.2-28.8,63-44.1,89.5c-15.3,26.4-29.4,48.8-42.1,67.1s-25.8,35.6-39,51.7c-13.2,16.2-29.9,34.4-50.1,54.7
	c-20.3,20.2-31.4,31.3-33.2,33.2c-2,1.9-10.3,8.8-25.1,20.9c-14.6,12.2-30.4,24.4-47.3,36.5c-16.8,12.1-32.2,22.2-46.3,30.3
	c-14.1,8.1-31,17.4-50.9,27.7c-19.7,10.5-41.1,20.2-64.2,29.2s-47.3,17.2-72.8,24.9c-25.5,7.7-50.3,13.6-74.1,17.9
	c-23.9,4.3-50.9,7.9-81.2,10.8l-45.4,4.5v0.6h-83v-0.6l-10.8-0.6c-7.3-0.5-13.2-0.9-17.9-1.3c-4.7-0.5-22.3-2.8-53-7
	c-30.7-4.3-54.7-8.5-72.2-12.8c-17.5-4.3-43.5-12.4-77.9-24.3c-34.5-11.9-64-24-88.5-36.2c-24.4-12.1-39.8-19.7-46-23
	c-6.1-3.2-13-7.1-20.7-11.7l-11.6-7.5l-0.2-0.4l-0.4-0.3l-0.4-0.3l-0.3-0.4l-1.3-0.6l-1.3-0.6l-0.2-0.4l-0.4-0.3l-0.4-0.3l-0.2-0.3
	l-0.2-0.4l-0.4-0.3H0.1v-2.6l1.3,0.3l1.3,0.4l5.7,0.6c3.9,0.5,14.3,1.1,31.3,1.9s35.2,0.9,54.3,0s38.7-2.8,58.8-5.7
	c20-3,43.7-8.1,70.9-15.3c27.3-7.3,52.3-15.8,75.2-25.8c22.7-10,38.9-17.5,48.6-22.5c9.5-4.9,24.1-13.9,43.7-27.1l29.4-19.8l0.3-0.4
	l0.4-0.3l0.4-0.3l0.2-0.4l0.3-0.4l0.4-0.3l0.4-0.3l0.2-0.4l1.3-0.4l1.3-0.3l0.3-1.3l0.4-1.3l0.4-0.3l0.2-0.4l-10.2-0.6
	c-6.8-0.5-13.4-0.9-19.8-1.3c-6.4-0.5-16.4-2.3-30-5.7c-13.6-3.4-28.3-8.5-44.1-15.3c-15.8-6.8-31.1-14.9-46-24.3
	c-14.9-9.4-25.7-17.2-32.3-23.4c-6.6-6.1-15.1-14.8-25.6-26.1c-10.4-11.3-19.4-23-27.1-34.9c-7.7-11.9-15-25.7-22-41.3l-10.6-23.3
	l-0.6-1.9l-0.6-1.9l-0.4-1.3l-0.3-1.3l1.9,0.3l1.9,0.4l14.1,1.9c9.4,1.3,24.1,1.7,44.1,1.3c20-0.5,33.9-1.3,41.5-2.6
	c7.7-1.3,12.4-2.2,14.1-2.6l2.6-0.6l3.2-0.6l3.2-0.6l0.3-0.4l0.4-0.3l0.4-0.3l0.2-0.4l-2.6-0.6l-2.6-0.6l-2.6-0.6l-2.6-0.6l-2.6-0.6
	c-1.7-0.5-4.7-1.3-9-2.6c-4.3-1.3-15.8-6-34.5-14.1c-18.7-8.1-33.6-16-44.8-23.7c-11.1-7.7-21.7-16.1-31.7-25.2
	c-10-9.2-20.9-21-32.8-35.5c-11.9-14.5-22.6-31.3-31.9-50.5s-16.4-37.5-21.1-55c-4.7-17.4-7.8-35.1-9.2-53L55.1,506l1.3,0.3l1.3,0.4
	l1.3,0.6l1.3,0.6l1.3,0.6l1.3,0.6l19.8,9c13.2,6,29.6,11.1,49.2,15.3s31.3,6.6,35.2,7l5.7,0.6h11.5l-0.2-0.4l-0.4-0.3l-0.4-0.3
	l-0.3-0.4l-0.2-0.4l-0.4-0.3l-0.4-0.3l-0.3-0.4l-1.3-0.6l-1.3-0.6l-0.2-0.4l-0.4-0.3l-0.4-0.3l-0.3-0.4l-1.3-0.6l-1.3-0.6l-0.2-0.4
	c-0.3-0.2-3.9-2.9-11-8.2c-7-5.4-14.3-12.3-22-20.8c-7.7-8.5-15.3-17.5-23-26.8c-7.7-9.4-14.5-19.5-20.4-30
	c-6-10.7-12.3-24.2-18.9-40.6c-6.6-16.3-11.6-32.8-15-49.5s-5.3-33-5.7-49.2c-0.5-16.2,0-30,1.3-41.5c1.3-11.5,3.9-24.5,7.7-39
	s9.4-29.8,16.6-46l10.8-24.3l0.6-1.9l0.6-1.9l0.4-0.3l0.2-0.4l0.3-0.4l0.4-0.3l0.4,0.3l0.2,0.4l0.3,0.4l0.4,0.3l0.4,0.3l0.2,0.4
	l0.3,0.4l0.4,0.3l0.6,1.3l0.6,1.3l0.4,0.3l0.2,0.4l17.2,19.2c11.5,12.8,25.1,27.1,40.9,42.8s24.5,23.9,26.2,24.6
	c1.7,0.7,3.9,2.7,6.4,5.9c2.6,3.2,11.1,10.7,25.6,22.6c14.5,11.9,33.5,25.8,56.9,41.5c23.4,15.8,49.4,31.3,77.9,46.6
	c28.5,15.3,59.2,29.2,92,41.5s55.8,20.4,69,24.3c13.2,3.9,35.8,8.7,67.7,14.7c31.9,6,56,9.8,72.2,11.5c16.2,1.7,27.3,2.7,33.2,2.9
	l9,0.3l-0.2-1.9l-0.4-1.9l-2.8-15.8c-1.7-10.7-2.6-25.6-2.6-44.8s1.5-36.9,4.5-53c3-16.2,7.4-32.6,13.4-49.2c6-16.6,11.8-30,17.5-40
	c5.8-10,13.4-21.3,22.7-34.1c9.4-12.8,21.5-26,36.4-39.6c14.9-13.6,31.9-25.8,51.1-36.4c19.2-10.7,36.9-18.7,53-24.3
	c16.2-5.6,29.8-9.1,40.9-10.8C941.5,103.9,947,102.9,947,102.7z"/>
<path class="st1" d="M0.1,612.3V102.4h947v0.2c0,0.3-5.6,1.2-16.6,2.9c-11.1,1.7-24.7,5.3-40.9,10.8c-16.2,5.6-33.9,13.6-53,24.3
	c-19.2,10.7-36.2,22.8-51.1,36.4c-14.9,13.6-27.1,26.8-36.4,39.6c-9.4,12.8-17,24.2-22.7,34.1c-5.7,10-11.6,23.4-17.5,40
	c-6,16.6-10.4,33-13.4,49.2c-3,16.2-4.5,33.9-4.5,53s0.9,34.1,2.6,44.8l2.6,16l0.4,1.9l0.2,1.9l-9-0.3c-6-0.3-17-1.2-33.2-2.9
	c-16.2-1.7-40.3-5.6-72.2-11.5c-31.9-6-54.5-10.8-67.7-14.7c-13.2-3.9-36.2-11.9-69-24.3c-32.7-12.3-63.4-26.2-91.9-41.5
	c-28.5-15.3-54.5-30.9-77.9-46.6c-23.4-15.8-42.4-29.6-56.9-41.5c-14.5-11.9-23-19.5-25.6-22.6c-2.6-3.2-4.7-5.2-6.4-5.9
	c-1.7-0.6-10.4-8.8-26.2-24.6s-29.4-30-40.9-42.8l-17.2-19.1l-0.2-0.4l-0.4-0.3l-0.6-1.3l-0.6-1.3l-0.4-0.3l-0.3-0.4l-0.2-0.4
	l-0.4-0.3l-0.4-0.3l-0.3-0.4l-0.2-0.4l-0.4-0.3l-0.4,0.3l-0.3,0.4l-0.2,0.4l-0.4,0.3l-0.6,1.9l-0.6,1.9l-10.8,24.3
	c-7.3,16.2-12.8,31.5-16.6,46c-3.9,14.5-6.4,27.5-7.7,39c-1.3,11.5-1.7,25.4-1.3,41.5c0.5,16.2,2.3,32.6,5.7,49.2
	c3.4,16.6,8.4,33.1,15,49.5c6.6,16.5,12.9,30,18.9,40.6c6,10.7,12.8,20.6,20.4,30c7.7,9.4,15.3,18.3,23,26.8
	c7.7,8.5,15,15.5,22,20.8c7.1,5.3,10.7,8,11,8.2l0.2,0.4l1.3,0.6l1.3,0.6l0.3,0.4l0.4,0.3l0.4,0.3l0.2,0.4l1.3,0.6l1.3,0.6l0.3,0.4
	l0.4,0.3l0.4,0.3l0.2,0.4l0.3,0.4l0.4,0.3l0.4,0.3l0.2,0.4h-11.5l-5.7-0.6c-3.9-0.5-15.5-2.8-35.2-7c-19.6-4.3-36-9.4-49.2-15.3
	l-19.8-9l-1.3-0.6l-1.3-0.6l-1.3-0.6l-1.3-0.6l-1.3-0.4l-1.3-0.3l2.3,26.8c1.5,17.9,4.5,35.6,9.2,53c4.7,17.5,11.7,35.8,21.1,55
	c9.4,19.2,20,36,31.9,50.5s22.9,26.3,32.8,35.5c10,9.1,20.6,17.5,31.7,25.2c11.1,7.7,26,15.5,44.8,23.7
	c18.7,8.1,30.2,12.8,34.5,14.1c4.3,1.3,7.3,2.2,9,2.6l2.6,0.6l2.6,0.6l2.6,0.6l2.6,0.6l2.6,0.6l-0.2,0.4l-0.4,0.3l-0.4,0.3l-0.3,0.4
	l-3.2,0.6l-3.2,0.6l-2.6,0.6c-1.7,0.5-6.4,1.3-14.1,2.6c-7.7,1.3-21.5,2.2-41.5,2.6c-20,0.5-34.7,0-44.1-1.3l-14.1-1.9l-1.9-0.4
	l-1.9-0.3l0.3,1.3l0.4,1.3l0.6,1.9l0.6,1.9l10.6,23.3c7,15.6,14.3,29.3,22,41.3c7.7,11.9,16.7,23.5,27.1,34.9
	c10.5,11.2,19,19.9,25.6,26.1c6.6,6.2,17.4,14,32.3,23.4c14.9,9.4,30.2,17.5,46,24.3c15.8,6.8,30.5,11.9,44.1,15.3
	c13.6,3.4,23.7,5.3,30,5.7c6.4,0.5,13,0.9,19.8,1.3l10.2,0.6l-0.2,0.4l-0.4,0.3l-0.4,1.3l-0.3,1.3l-1.3,0.3l-1.3,0.4l-0.2,0.4
	l-0.4,0.3l-0.4,0.3l-0.3,0.4l-0.2,0.4l-0.4,0.3l-0.4,0.3l-0.3,0.4l-29.4,19.8c-19.6,13.2-34.1,22.2-43.7,27.1
	c-9.6,4.9-25.8,12.4-48.6,22.5c-22.9,10-47.9,18.5-75.2,25.8c-27.3,7.3-50.9,12.4-70.9,15.3c-20,3-39.6,4.9-58.8,5.7
	c-19.2,0.9-37.3,0.9-54.3,0c-17-0.9-27.5-1.5-31.3-1.9l-5.7-0.6l-1.3-0.4l-1.3-0.3L0.1,612.3L0.1,612.3z M1415.7,242.7l0.2-0.4
	l0.6-0.4l0.6-0.3v1012.1h-929v-0.6l45.4-4.5c30.2-3,57.3-6.6,81.2-10.8c23.9-4.3,48.6-10.2,74.1-17.9s49.9-16,72.8-24.9
	c23-9,44.4-18.7,64.2-29.2c19.9-10.4,36.8-19.6,50.9-27.7c14.1-8.1,29.5-18.2,46.3-30.3c16.8-12.2,32.6-24.4,47.3-36.5
	c14.7-12.1,23.1-19.1,25.1-20.9c1.9-2,12.9-13,33.2-33.2c20.2-20.3,36.9-38.5,50.1-54.7c13.2-16.2,26.2-33.5,39-51.7
	c12.8-18.3,26.8-40.7,42.1-67.1c15.3-26.4,30-56.2,44.1-89.5c14.1-33.2,26-67.3,35.8-102.2c9.8-34.9,17-66.3,21.7-93.9
	c4.7-27.7,7.9-53.4,9.6-77.3c1.7-23.9,2.7-45.3,2.9-64.2c0.2-19,8.3-35,24.3-48c15.9-12.9,32.2-27.7,48.8-44.4s25.6-26.1,27.1-28.5
	c1.5-2.3,2.7-3.6,3.6-3.9c0.9-0.2,6.6-7.4,17.2-21.7c10.7-14.2,16.1-21.4,16.2-21.7l0.4-0.3l0.6-1.3l0.6-1.3l0.4-0.3l0.2-0.4
	l0.3-0.4l0.4-0.3l0.4-0.3l0.2-0.4l0.3-0.4l0.4-0.3L1415.7,242.7L1415.7,242.7z M1037.7,107.2l-24.3-4.9h403.8v136.8l-2.6,0.3
	l-2.6,0.4l-1.3,0.6l-1.3,0.6l-1.3,0.6l-1.3,0.6l-1.9,0.6l-3.9,1.3l-34.5,11.5c-21.7,7.3-44.5,13.4-68.4,18.5l-35.8,7.7h-6.4l0.3-0.4
	l0.4-0.3l0.4-0.3l0.2-0.4l0.3-0.4l0.4-0.3l0.4-0.3l0.2-0.4l1.3-0.6l1.3-0.6l0.3-0.4l0.4-0.3l0.4-0.3l0.2-0.4l1.3-0.6l1.3-0.6
	l6.4-4.2c4.3-2.7,7.9-5.7,10.8-9c3-3.2,9.1-8.7,18.3-16.6c9.1-7.8,19.4-19.4,30.9-34.8c11.5-15.3,21.1-30.5,28.8-45.4
	s11.7-23.4,12.1-25.6c0.5-2.2,0.9-3.9,1.3-5.1l0.6-1.9l0.6-1.3l0.6-1.3l0.6-1.9l0.6-1.9l0.4-1.9l0.2-1.9l-1.3,0.3l-1.3,0.4l-0.2,0.4
	l-0.4,0.3l-0.4,0.3l-0.3,0.4l-1.3,0.6l-1.3,0.6l-1.3,0.6l-1.3,0.6l-0.2,0.4c-0.3,0.2-2.4,1.5-6.4,3.9c-4.1,2.3-15.5,7.7-34.3,16.2
	c-18.7,8.5-37.7,16.2-56.9,23c-19.2,6.9-37,12.1-53.7,16s-28.8,1.8-36.7-6.1c-7.9-7.8-16.8-15.3-26.8-22.2
	c-10-7.1-21.3-14-33.6-20.8s-25.2-12.8-38.3-17.9C1068.6,114.6,1053.9,110.4,1037.7,107.2z M0.1,1189.3v-64.6h0.6l0.4,0.3l0.2,0.3
	l0.3,0.4l0.4,0.3l0.4,0.3l0.2,0.4l1.3,0.6l1.3,0.6l0.3,0.4l0.4,0.3l0.4,0.3l0.2,0.4l11.5,7c7.7,4.7,14.6,8.6,20.7,11.7
	c6.2,3.2,21.6,10.9,46,23c24.6,12.2,54.1,24.2,88.5,36.2c34.5,11.9,60.5,20,77.9,24.3c17.5,4.3,41.5,8.5,72.2,12.8
	c30.7,4.3,48.3,6.6,53,7c4.7,0.5,10.7,0.9,17.9,1.3l10.8,0.6v0.6H0.1V1189.3z"/>
</svg>
